# xmcd
#
# Track frame offsets:
#	150
#	14552
#	32837
#	45101
#	64874
#	75542
#	93252
#	105044
#	117358
#	133444
#	150802
#	167820
#	186223
#	197214
#	215180
#	233892
#
# Disc length: 3346 seconds
#
# Revision: 4
# Processed by: cddbd v1.5.2PL0 Copyright (c) Steve Scherf et al.
# Submitted via: audiograbber 1.83.01
#
DISCID=d00d1010
DTITLE=The Magic Band - Back to the Front
DYEAR=2003
DGENRE=Experimental
TTITLE0=My Human Gets Me Blues
TTITLE1=Click Clack
TTITLE2=Abba Zaba
TTITLE3=I'm Gonna Booglarize You Baby
TTITLE4=Sun Zoom Spark
TTITLE5=Alice in Blunderland
TTITLE6=Steal Softly thru Snow
TTITLE7=Dropout Boogie
TTITLE8=Moonlight on Vermont
TTITLE9=Circumstances
TTITLE10=On Tomorrow
TTITLE11=The Floppy Boot Stomp
TTITLE12=Hair Pie
TTITLE13=Nowadays a Woman's Gotta Hit a Man
TTITLE14=When It Blows Its Stacks
TTITLE15=I Wanna Find a Woman That'll Hold My Big Toe till I Have to Go/Sure 'N
TTITLE15=uff 'n Yes I Do
EXTD=All songs by Don Van Vliet.\nGary Lucas: guitars (left channel) [lead on 2
EXTD=, 4, 5, 6, 15]\nDenny Walley: guitars (right channel) [lead on 9, 12, 14]
EXTD=\nMark Boston: middle earth bass\nJohn French: perspective drums, harmonic
EXTD=a, vocals\nRecorded at Paradoxx Sound Studios, Palmdale US-CA, 2003-02.\nC
EXTD=o-produced by John French and Bob Weston.\nCD: ATP Recordings ATPR6CD (200
EXTD=3-07-08), UPC 036172640621.
EXTT0=
EXTT1=
EXTT2=
EXTT3=
EXTT4=
EXTT5=
EXTT6=
EXTT7=
EXTT8=
EXTT9=
EXTT10=
EXTT11=
EXTT12=
EXTT13=
EXTT14=
EXTT15=I Wanna Find A Woman That'll Hold My Big Toe Till I Have To Go/Sure 'Nuf
EXTT15=f 'N Yes I Do
PLAYORDER=
